<svg width="133" height="48" viewBox="0 0 133 48" fill="none" xmlns="http://www.w3.org/2000/svg">
<g clip-path="url(#clip0_10023_248)">
<path d="M11.083 0.355865C17.2068 0.355865 22.1667 5.02974 22.167 10.8002C22.1704 13.2742 21.2395 15.6676 19.5449 17.5443L21.8975 47.6449H0.85547L3.13672 18.0707C1.1261 16.1352 -0.00112416 13.5231 8.41281e-07 10.8022C8.41281e-07 5.03015 4.96073 0.356032 11.083 0.355865ZM9.35742 25.7104V39.1527H12.9365V22.2865L9.35742 25.7104ZM10.8721 8.31973C9.42844 8.31973 8.25805 9.44029 8.25781 10.8227C8.25781 12.2052 9.42829 13.3266 10.8721 13.3266C12.3158 13.3265 13.4863 12.2052 13.4863 10.8227C13.4861 9.44031 12.3157 8.31977 10.8721 8.31973Z" fill="#1CC691"/>
<path d="M52.5202 33.1356C51.1251 34.6415 49.7567 35.5887 49.0237 35.9774C48.3083 36.3619 47.5085 36.5625 46.6962 36.5611C45.7845 36.5611 44.9938 36.2995 44.3244 35.7734C43.662 35.2584 43.1747 34.5513 42.9294 33.7489C42.6693 32.9213 42.5393 31.7539 42.5393 30.2421V23.4118C42.5393 23.2404 42.5393 22.4912 42.0723 22.2592C41.9506 22.2124 41.8226 22.1845 41.6925 22.1764C41.5535 22.1614 41.4479 22.0443 41.4472 21.9045L41.4427 21.1139C41.4427 20.9617 41.5639 20.8375 41.7161 20.8361H44.7101C45.1416 20.8361 45.4904 21.1863 45.4904 21.6163V25.6787H45.4874V30.7032C45.4874 32.2135 45.7519 33.2051 46.278 33.6765C46.8056 34.1494 47.4425 34.3858 48.1888 34.3858C48.6972 34.3858 49.275 34.2247 49.9208 33.907C50.5651 33.5878 51.6365 32.9819 52.5246 32.0864L52.5261 31.3209H52.5276L52.5379 24.1093V23.4104C52.5379 23.2404 52.5379 22.4912 52.0754 22.2592C51.9577 22.2128 51.8336 22.1849 51.7074 22.1764C51.5695 22.16 51.4656 22.0433 51.465 21.9045L51.4591 21.1139C51.4591 20.9617 51.5803 20.8375 51.7325 20.8361H54.6836C55.1092 20.8361 55.455 21.1819 55.455 21.6075V24.2246C55.4571 24.2423 55.4581 24.26 55.458 24.2778V29.6761C55.458 30.9278 55.458 32.0775 55.455 33.1282H55.4521L55.455 33.5346C55.455 33.706 55.4343 34.5277 55.8984 34.7597C56.0166 34.806 56.1412 34.8339 56.2678 34.8424C56.4067 34.8572 56.5116 34.9754 56.5131 35.1144L56.5176 35.9079C56.5183 35.9811 56.4899 36.0515 56.4386 36.1037C56.3873 36.1558 56.3173 36.1854 56.2442 36.1857H53.2842C52.8582 36.1857 52.5128 35.8404 52.5128 35.4143V35.4114L52.5187 33.941H52.5157L52.5202 33.1356ZM58.4756 18.3076L58.4741 16.2742C58.4741 16.1101 58.4741 15.389 58.0234 15.1673C57.9662 15.1399 57.9063 15.1186 57.8446 15.1038C57.7224 15.0733 57.6366 14.9637 57.6362 14.8378L57.6318 14.0752C57.631 14.0022 57.6595 13.9319 57.7108 13.88C57.7622 13.8281 57.8322 13.7989 57.9052 13.7989H60.5637C60.9775 13.7989 61.3144 14.1343 61.3144 14.5496L61.3085 18.4583V23.4769C62.8306 21.3858 64.471 20.341 66.2339 20.341C67.8477 20.341 69.2545 21.0208 70.4574 22.3833C71.6574 23.7458 72.2588 25.6063 72.2588 27.9693C72.2588 30.7254 71.3323 32.9465 69.4777 34.6296C67.8876 36.0764 66.1143 36.799 64.1577 36.799C63.2415 36.799 62.3119 36.6365 61.3691 36.3069C60.5051 35.9995 59.6779 35.597 58.9027 35.107C58.6376 34.9415 58.4767 34.651 58.4771 34.3385V19.3805C58.4771 19.0997 58.4771 18.7435 58.4741 18.3091L58.4756 18.3076ZM61.573 34.0962C62.074 34.5395 62.5897 34.8853 63.1188 35.1306C63.7424 35.4173 64.3808 35.5621 65.0325 35.5621C66.0743 35.5621 67.0438 34.9961 67.9423 33.8671C68.8407 32.7366 69.29 31.0933 69.29 28.9343C69.29 26.9467 68.8407 25.4172 67.9423 24.3502C67.0438 23.2818 66.0226 22.7483 64.8788 22.7483C64.2729 22.7483 63.6656 22.9005 63.0597 23.2064C62.6577 23.4044 62.1582 23.7768 61.5627 24.3236C61.4006 24.4726 61.3084 24.6827 61.3085 24.9029V33.5065C61.3085 33.7312 61.4046 33.9454 61.573 34.0962ZM92.4497 31.4583V24.699C93.7975 23.2537 95.7378 22.5311 97.0959 22.5311C97.9751 22.5311 98.6002 22.8444 98.9712 23.4739C99.3406 24.102 99.5268 25.1098 99.5268 26.5004V31.4583H99.5224V35.4084C99.5224 35.8222 99.8578 36.1577 100.272 36.1577H102.355C102.528 36.1577 102.747 36.1562 103.013 36.1518C103.164 36.1493 103.285 36.0252 103.283 35.8739L103.279 35.1129C103.278 34.9771 103.178 34.8622 103.044 34.8424C102.961 34.8325 102.88 34.8101 102.803 34.7759C102.355 34.5528 102.355 33.8257 102.355 33.6587V31.6076H102.352V26.2314C102.352 24.8527 102.227 23.83 101.975 23.1636C101.61 22.2074 101.118 21.5203 100.504 21.1035C99.8874 20.6868 99.1515 20.4784 98.2943 20.4784C96.7279 20.4784 94.4965 21.4316 92.7793 23.3379C92.7743 23.3439 92.7694 23.3498 92.7645 23.3557C92.7146 23.4116 92.6352 23.4308 92.5652 23.4039C92.4953 23.3769 92.4493 23.3095 92.4497 23.2345V22.633V22.636V21.5351C92.4497 21.3383 92.3716 21.1496 92.2324 21.0105C92.0933 20.8714 91.9046 20.7932 91.7079 20.7932H89.0952C89.022 20.7932 88.9519 20.8224 88.9003 20.8742C88.8487 20.9261 88.8199 20.9964 88.8203 21.0696L88.8247 21.8336C88.8267 21.958 88.9103 22.0662 89.0302 22.0996C89.0881 22.1136 89.1446 22.1334 89.1986 22.1587C89.642 22.3803 89.642 23.1 89.642 23.2655V23.301C89.6386 23.4645 89.6386 23.6281 89.642 23.7916V25.2945H89.6449C89.636 25.8516 89.6242 26.4679 89.6242 27.0826V32.7529C89.6242 32.7563 89.6242 32.7598 89.6242 32.7632V33.6514C89.6242 33.8169 89.6242 34.5425 89.1765 34.7656C89.0702 34.8084 88.9581 34.8348 88.844 34.8439C88.7067 34.861 88.6035 34.9775 88.6031 35.1158L88.5972 35.8665C88.5972 36.0188 88.7183 36.1429 88.8706 36.1444H91.702C92.1158 36.1444 92.4497 35.8089 92.4497 35.3966V31.4569V31.4583ZM132.1 32.3938V33.4179C132.102 33.4888 132.104 33.5598 132.107 33.6307C132.14 34.1021 132.288 34.4021 132.548 34.5321C132.614 34.5632 132.683 34.586 132.755 34.6001C132.88 34.627 132.971 34.7375 132.972 34.8661L132.976 35.6345C132.977 35.7074 132.948 35.7775 132.897 35.8293C132.846 35.8812 132.776 35.9105 132.703 35.9109H130.022C129.609 35.9109 129.274 35.5761 129.274 35.1631V33.7016C127.661 34.9562 126.648 35.6818 126.236 35.8769C125.618 36.1645 124.944 36.3119 124.262 36.3085C123.174 36.3085 122.279 35.9331 121.575 35.1853C120.87 34.4375 120.519 33.4548 120.519 32.2342C120.519 31.4628 120.69 30.7963 121.034 30.2318C121.503 29.4486 122.208 28.556 123.48 28.0225C124.752 27.4905 125.842 27.3678 129.274 26.5876V25.197C129.261 23.7192 129.025 22.2148 126.579 22.3626C124.884 22.4605 123.249 23.0235 121.853 23.9896C121.769 24.0473 121.66 24.0535 121.569 24.0057C121.479 23.958 121.423 23.8642 121.423 23.7621V22.8606C121.423 22.3848 121.515 22.0744 121.696 21.9267C122.707 21.1124 125.205 20.1386 127.64 20.3041C130.341 20.4858 131.314 21.6134 131.8 23.3335C131.948 23.8596 132.109 24.2438 132.109 25.7748V30.4904C132.109 31.1539 132.106 31.7879 132.1 32.3923V32.3938ZM129.276 27.7713C127.151 28.2087 125.927 28.4806 125.607 28.5885C124.421 28.9845 123.482 29.4382 123.405 31.4214C123.372 32.2489 123.652 32.9376 124.144 33.4844C124.636 34.0311 125.202 34.3045 125.843 34.3045C126.64 34.3045 127.664 33.7016 128.921 32.7381C129.145 32.5662 129.276 32.3003 129.276 32.0184V27.7713ZM117.99 33.5804V33.5878C117.99 33.7489 117.99 34.4523 118.423 34.6681C118.472 34.6932 118.53 34.7124 118.598 34.7301C118.719 34.7597 118.804 34.869 118.804 34.9961L118.81 35.7291C118.811 35.802 118.782 35.8721 118.731 35.9239C118.68 35.9757 118.61 36.0051 118.537 36.0055H115.974C115.575 36.0055 115.25 35.6813 115.25 35.2813V34.5691L115.242 34.572C114.498 35.3656 113.771 35.9345 113.06 36.2803C112.349 36.6261 111.583 36.799 110.761 36.799C109.095 36.799 107.643 36.0882 106.398 34.6651C105.154 33.2435 104.532 31.414 104.532 29.1826C104.532 26.9496 105.221 24.9059 106.598 23.0527C107.974 21.1996 109.746 20.2745 111.911 20.2745C113.255 20.2745 114.364 20.7105 115.242 21.5823V16.1397C115.242 15.9742 115.242 15.253 114.807 15.0299C114.758 15.0055 114.707 14.9857 114.655 14.9708C114.538 14.9367 114.457 14.8296 114.457 14.7077L114.454 13.9334C114.454 13.7812 114.575 13.657 114.727 13.6555H117.262C117.664 13.6555 117.989 13.9807 117.989 14.3826V33.5346L117.99 33.5804ZM113.316 22.7025C112.768 22.3789 112.231 22.2178 111.71 22.2178C110.733 22.2178 109.842 22.6375 109.045 23.4562C108.166 24.3576 107.579 25.5723 107.579 27.8393C107.579 30.1298 108.067 31.8825 109.045 33.1001C110.021 34.3193 111.11 34.9296 112.31 34.9296C113.165 34.9296 113.997 34.5602 114.806 33.8183C115.083 33.5638 115.24 33.2046 115.24 32.8282V26.0674C115.24 24.6845 114.508 23.4034 113.316 22.7025ZM75.4228 34.7582C74.1814 33.3455 73.5342 31.0874 73.5342 28.8471C73.5342 26.4827 74.2686 24.3192 75.6031 22.7572C76.9907 21.1287 78.8896 20.2686 81.093 20.2686C82.9609 20.2686 84.384 20.907 85.3239 22.1646C86.2017 23.3394 86.6465 25.0197 86.6465 27.1595C86.6465 27.4181 86.6317 27.7801 86.5992 28.2427C86.5798 28.532 86.3395 28.7568 86.0495 28.757H76.4823C76.4396 28.7569 76.3986 28.7739 76.3685 28.8042C76.3394 28.8343 76.3234 28.8747 76.3242 28.9166C76.3567 30.6751 76.9153 32.1603 77.938 33.2139C78.9428 34.2499 80.3231 34.7966 81.9279 34.7966C83.1249 34.7966 84.6929 34.4833 85.9032 34.1154C86.015 34.0809 86.1368 34.1098 86.2212 34.1908C86.3056 34.2719 86.3395 34.3924 86.3096 34.5055L86.147 35.1321C86.0877 35.3612 85.9311 35.5529 85.7185 35.6567C84.5215 36.2389 82.7319 36.799 80.892 36.799C78.6576 36.799 76.738 36.2537 75.4228 34.7582ZM76.2163 26.7206C76.2128 26.7629 76.2292 26.8044 76.2607 26.8329C76.2913 26.8633 76.3328 26.8804 76.3759 26.8802H84.0604C84.1417 26.8802 84.2111 26.8211 84.2185 26.7472C84.3072 25.9403 84.3412 24.4817 83.1427 23.2404C82.5516 22.6286 81.8393 22.3183 80.4679 22.3183C78.0739 22.3183 76.4823 24.6842 76.2163 26.7221V26.7206Z" fill="white"/>
<path d="M99.5328 31.55V33.6218C99.5328 33.7903 99.5328 34.5233 99.0865 34.7508C99.0697 34.7589 99.0524 34.7658 99.0348 34.7715C98.7246 34.8798 98.5163 35.1716 98.5146 35.5001C98.5138 35.6711 98.5812 35.8354 98.7018 35.9565C98.8225 36.0777 98.9864 36.1459 99.1574 36.1459H101.602C101.799 36.1463 101.989 36.0681 102.128 35.9287C102.268 35.7892 102.346 35.5999 102.346 35.4025V31.3978L99.5328 31.55ZM92.4527 31.55V33.6218C92.4527 33.7903 92.4527 34.5233 92.8975 34.7508C92.9148 34.7589 92.9326 34.7658 92.9507 34.7715C93.2611 34.8809 93.468 35.1705 93.4695 35.5001C93.4702 35.6708 93.4031 35.8349 93.2827 35.956C93.1624 36.0772 92.9988 36.1455 92.8281 36.1459H90.3838C89.9731 36.1459 89.6399 35.8133 89.639 35.4025V31.3978L92.4527 31.55ZM38.0158 22.0597V34.074C38.0158 34.3903 38.1961 34.6784 38.4799 34.8159C38.7627 34.9541 38.9422 35.2414 38.9424 35.5562V35.7838C38.9424 36.0409 38.7355 36.2478 38.4799 36.2478H34.447C34.194 36.2478 33.9889 36.0427 33.9889 35.7897V35.5533C33.9889 35.24 34.1662 34.9533 34.447 34.8159C34.7275 34.6779 34.9051 34.3925 34.9051 34.0799V22.4735C34.9051 22.31 34.773 22.1772 34.6096 22.1764C34.5305 22.1768 34.4546 22.1457 34.3986 22.09C34.3425 22.0342 34.311 21.9584 34.311 21.8794V21.4981C34.311 21.1227 34.6154 20.8184 34.9908 20.8184H36.7745C37.4601 20.8184 38.0158 21.3741 38.0158 22.0597Z" fill="white"/>
<path d="M36.4656 17.7889C37.5299 17.7889 38.3926 16.9255 38.3926 15.8604C38.3926 14.7953 37.5299 13.9319 36.4656 13.9319C35.4013 13.9319 34.5386 14.7953 34.5386 15.8604C34.5386 16.9255 35.4013 17.7889 36.4656 17.7889Z" fill="white"/>
</g>
<defs>
<clipPath id="clip0_10023_248">
<rect width="133" height="47.2889" fill="white" transform="translate(0 0.35556)"/>
</clipPath>
</defs>
</svg>
